<svg id="Layer_1" data-name="Layer 1" xmlns="http://www.w3.org/2000/svg" viewBox="0 0 368.25 345.59"><defs><style>.cls-1{fill:#fff;}.cls-1,.cls-2,.cls-3{stroke:#000;stroke-miterlimit:10;}.cls-2{fill:red;}</style></defs><title>Chicagobull</title><polygon class="cls-1" points="16.95 3.13 20.73 51.04 24.78 61.79 29.9 70.79 38.8 78.34 50.67 83.27 68.47 85.89 102.73 83.56 96.26 106.5 91.94 135.25 72.25 135.25 61.46 135.25 46.09 131.48 36.11 127.7 27.2 123.93 15.61 114.63 4.01 98.08 0.5 82.11 0.5 58.88 10.48 18.81 16.95 3.13"/><path class="cls-1" d="M470,123.24l9,52.24,15.25-.7a82.52,82.52,0,0,0,20-3l11.46-3.62a16,16,0,0,0,3.11-1.23l14-7.21,10.93-8,6.07-6.53,5.53-8.86,4.31-10.74,2-9.87.81-16.7-1.88-13.36L565.1,65.89l-9.85-23.67L553.9,72.13,551.34,92.6l-4.32,8-7.49,9.66a8.88,8.88,0,0,1-1.67,1.63l-7.2,5.34a13.17,13.17,0,0,1-4,2l-8.56,2.66a14.4,14.4,0,0,1-2.89.59l-12,1.16-11.87-.14Z" transform="translate(-204.76 -39.96)"/><path class="cls-2" d="M310.64,123.24l78.86-3,76.6,3L470,136.38l4.18,20.25.81,11.25,1.28,10.46L495.64,180l36.28,8,17.8,7,1.55.58L548.44,199l-8.23,6.68-9.37,5.88-9.58,2.69H509.44l-9.53-2-13.85-5-11,27.11-3.41,4.06-5.4,2.91L460,243.74l-4.32-1.16-6.11-4.26,7.91-1.93,9.17-4.07,4.5-5.42,4.49-9.49L478,207.35l6.47-3.29s2.16-1.55.36-6.2-7.91-6.77-7.91-6.77l-11.51,1-14,9.09-7.74,10.26-9.75,8.67-7.82,5.08-9.18,1.3-8.36-1.3L400.42,221l-5-8-3-11.76,45.18-4.79,1.08-3.48-9.3.29-11.06,1.59-26.84,1.6-.14-9.87,12-.58,12.14-1.45,10.92-1.17,8.23-2.46s3.91-2.76,1.89-2.91-7.42.29-7.42.29l-7.42,1.6-10.52.73L391,182l.13-12.73,10.79-.14s9.31-1,9.71-1,13.22-1.45,13.22-1.45l9-1.74,2-2.62-2-1.45-3.64.15-8.1,1.59-6.2.87-10,1-14.57.29L391,154s-3.1-6.68-3.24.29.14,11.18.14,11.18h-5.67l-15.46-1.21-9.17-1.46s-11.42-1.54-12.05-1.54a21.62,21.62,0,0,0-3.51,1.25l1.44,1.84s5.31,2.13,5.57,2.13,6.93,1.07,6.93,1.07l19.42,1.26,12.23.67.18,12.49H374.66a55.75,55.75,0,0,1-6.65-.48c-1.71-.39-10.43-1.84-10.43-1.84l-9.17-1.36-6-.39-.09,2.33,5.67,2.42L358,184l9.62,1.26,10.43.68,9.17.48L387,196.51l-7,.29L369.45,196l-8.46-.48-7.64-1.94-10.43-.09-.63,2.9,5.31.78,8.09.77L365,199.7l11.24.58,10.16.39-2.88,12.39-4.31,5.9-6.48,6.59-3.95,2.32-6.57.87-5.12-.19-6.48-1.84-6.56-4.36-10-8.9-9.62-9.59L316,196.41l-7.47-3.19-6.29-.78L298,193.8,295.27,197l-1.44,3.49-.54,3.77,2.25,3.1,3.77,1.16,1.17,6.39,1.53,6.48,4.05,5.91,4.49,4s5.4,3.48,5.94,3.67,6,2.23,6.65,2.33,3.78-.2,3.78-.2l-2,3.68-4.59,3-5.48.58-4.41-.77-6-3.29-4.5-8.33-3.05-9.68-5.13-12.48-1.08-1.16L287,211l-6.83,2.32-9.08,1.84-8.18.58-11.06-.29-9.89-3.2s-7.64-4.45-7.82-4.74-8.82-9.1-8.82-9.1l11.51-5.71,17.54-5,19.78-4.65,19.6-2.51,5-1L302.82,151l6.38-22.46Z" transform="translate(-204.76 -39.96)"/><path class="cls-2" d="M339.5,241l5,14.71,2.88,17.81V289l-5.76,29.81,7.91-4.26,12.95-4,13.31-2.9,14.57-.53,10.92.82s9,1.89,9.22,2,10.74,3.38,10.74,3.38,15.06,6.87,15.24,7-2.88-14.71-2.88-14.71l-1.3-12.05,1.26-33.35s2.85-15.09,2.93-15.24,1.74-7.11,1.74-7.11l-4.94,2.22-7.69,2.42s-9.62,1.94-9.75,1.79-5.89-.48-5.89-.48l-5.89-1.55-6.66-4.16-7.23-7h-3.33l-3.6,5-5.48,4.36-5.58,3-6,1.16-5.4.29-6.92-.19-4.59-1.36s-3.95-1.45-4.58-1.64S339.5,241,339.5,241Z" transform="translate(-204.76 -39.96)"/><polygon class="cls-3" points="143.73 208.42 144.63 218.39 146.43 224.98 150.47 234.66 155.6 242.2 163.51 249.08 170.44 253.04 180.42 254.69 190.04 254.69 200.2 251.3 209.37 244.33 217.37 234.27 220.52 227.59 224.2 220.33 226.54 214.43 227.98 207.94 225.91 207.36 224.29 212.49 221.51 220.23 217.46 229.43 210.81 239.3 205.95 244.04 200.2 248.21 195.16 250.14 189.77 251.3 181.94 251.88 174.21 250.82 167.65 248.3 161.98 244.14 155.15 236.49 150.12 225.46 147.06 215.59 146.07 208.33 143.73 208.42"/><polygon class="cls-2" points="128.36 287.5 140.04 279.95 149.58 276.08 162.43 272.11 173.6 270.47 187.52 270.47 199.3 271.34 211.8 274.73 225.19 280.39 234.36 286.24 240.12 290.89 239.22 302.7 235.08 315.86 230.95 324.57 224.02 336.38 218.18 339.67 208.42 342.77 200.2 344.13 191.21 345.09 186.53 345.09 179.52 345.09 170.71 345.09 162.07 343.35 153.26 341.61 146.25 339.09 140.13 332.7 134.74 322.06 130.25 311.6 128.36 298.63 128.36 287.5"/><path d="M372.7,353.36l1.69-3.41v-4.36l-3,3.27-4.45,3.05-5.26,1.45L355,351.91l-4.05-3.34-2.36-3-1.68-5.15s1.68-6.46,1.89-6.61,3.57-3.05,4-3.27,5.87-2.39,6.21-2.39h6.13l5.33,2,4,3.19,2.09,3.34,1.89,6.68-.88,5.81-2.09,4.21-.87.87Z" transform="translate(-204.76 -39.96)"/><path d="M401.9,353.6,400,351.37l-1.8-3.87-.63-6.3s1.62-5.12,1.71-5.51,5-5.51,5.39-5.9,6.3-3.58,6.3-3.58h7.46l4.4,2,3.78,3.17,2.16,3.29v5.27l-1.53,4-4.05,4.74-4.58,1.84h-4.95l-4.85-.58-5.58-4.84-1.89-1s-.09,3.2,0,3.59S401.9,353.6,401.9,353.6Z" transform="translate(-204.76 -39.96)"/><polygon points="143.73 331.35 152.18 328.44 166.93 324.57 177.72 323.22 192.82 323.22 201.81 324.38 213.32 327.28 223.03 331.35 221.24 333.67 215.12 331.15 207.57 328.44 197.14 326.32 188.33 325.54 172.86 326.32 161.35 328.44 150.93 331.35 144.99 333.67 143.73 331.35"/><polyline class="cls-2" points="101.11 206.17 106.71 207.36 112.31 206.77 117.43 205.45 122.02 202.76 124.72 201.09 124.72 208.42 121.61 213.36 118.58 216.12 114.94 216.84 109.34 216.19 104.62 212.2 101.11 206.54"/><polygon class="cls-2" points="106.51 217.64 111.36 220.11 117.36 220.11 124.11 214.16 127.01 207.36 130.45 213.74 134.74 227.44 135.91 238.7 136.85 260.4 134.74 275.21 126.13 261.27 116.76 241.28 107.52 221.78 106.51 217.64"/><polygon class="cls-2" points="243.53 202.66 247.49 204.79 251.4 205.91 257.02 205.91 265.56 202.18 266.42 202.57 265.97 205.67 262.82 210.36 259.13 213.17 255.9 214.72 251.04 214.23 246.5 211.81 244.43 208.04 243.31 204.84 243.53 202.66"/><path class="cls-2" d="M445.6,247.18l.77,2,1.7,2,2.12,2.17,3.37,2.47s2.7,1.07,2.88,1.07,4.54.38,4.76.34,3.78-.54,3.78-.54l.9,1.46-2,4.11-4.27,8.56-3.28,9-3.65,8.08-3.41,8.37-10.43,20.28-.59-6.73-1-17.23,1-14.66s2.48-11.9,2.75-13.07,3.86-14.37,3.86-14.37Z" transform="translate(-204.76 -39.96)"/></svg>